<?xml version="1.0" encoding="UTF-8" standalone="no"?><!DOCTYPE svg PUBLIC "-//W3C//DTD SVG 1.1//EN" "http://www.w3.org/Graphics/SVG/1.1/DTD/svg11.dtd"><!-- Generated by graphviz version 2.40.1 (20161225.0304)
 --><!-- Title: G Pages: 1 --><svg xmlns="http://www.w3.org/2000/svg" xmlns:xlink="http://www.w3.org/1999/xlink" width="1666pt" height="476pt" viewBox="0.00 0.00 1665.98 476.00">
<g id="graph0" class="graph" transform="scale(1 1) rotate(0) translate(4 472)">
<title>G</title>
<polygon fill="#ffffff" stroke="transparent" points="-4,4 -4,-472 1661.9776,-472 1661.9776,4 -4,4"/>
<!-- globalInstructions35 -->
<g id="node1" class="node">
<title>globalInstructions35</title>
<polygon fill="none" stroke="#000000" points="533.0387,-468 478.8337,-468 478.8337,-432 533.0387,-432 533.0387,-468"/>
<text text-anchor="middle" x="505.9362" y="-445.8" font-family="Times,serif" font-size="14.00" fill="#000000">Global</text>
</g>
<!-- type_defs36 -->
<g id="node2" class="node">
<title>type_defs36</title>
<polygon fill="none" stroke="#000000" points="442.1398,-396 349.7326,-396 349.7326,-360 442.1398,-360 442.1398,-396"/>
<text text-anchor="middle" x="395.9362" y="-373.8" font-family="Times,serif" font-size="14.00" fill="#000000">Type defs list</text>
</g>
<!-- globalInstructions35&#45;&gt;type_defs36 -->
<g id="edge45" class="edge">
<title>globalInstructions35-&gt;type_defs36</title>
<path fill="none" stroke="#000000" d="M478.7452,-432.2022C464.7047,-423.0121 447.3832,-411.6744 432.2175,-401.7478"/>
<polygon fill="#000000" stroke="#000000" points="433.8623,-398.6413 423.5785,-396.0931 430.0287,-404.4982 433.8623,-398.6413"/>
</g>
<!-- function_defs37 -->
<g id="node3" class="node">
<title>function_defs37</title>
<polygon fill="none" stroke="#000000" points="552.0353,-396 459.8371,-396 459.8371,-360 552.0353,-360 552.0353,-396"/>
<text text-anchor="middle" x="505.9362" y="-373.8" font-family="Times,serif" font-size="14.00" fill="#000000">Function defs</text>
</g>
<!-- globalInstructions35&#45;&gt;function_defs37 -->
<g id="edge46" class="edge">
<title>globalInstructions35-&gt;function_defs37</title>
<path fill="none" stroke="#000000" d="M505.9362,-431.8314C505.9362,-424.131 505.9362,-414.9743 505.9362,-406.4166"/>
<polygon fill="#000000" stroke="#000000" points="509.4363,-406.4132 505.9362,-396.4133 502.4363,-406.4133 509.4363,-406.4132"/>
</g>
<!-- stmt_list38 -->
<g id="node4" class="node">
<title>stmt_list38</title>
<polygon fill="none" stroke="#000000" points="631.1696,-396 570.7028,-396 570.7028,-360 631.1696,-360 631.1696,-396"/>
<text text-anchor="middle" x="600.9362" y="-373.8" font-family="Times,serif" font-size="14.00" fill="#000000">stmt list</text>
</g>
<!-- globalInstructions35&#45;&gt;stmt_list38 -->
<g id="edge47" class="edge">
<title>globalInstructions35-&gt;stmt_list38</title>
<path fill="none" stroke="#000000" d="M529.9087,-431.8314C541.7223,-422.8779 556.1334,-411.9558 568.8797,-402.2955"/>
<polygon fill="#000000" stroke="#000000" points="571.1157,-404.9925 576.9714,-396.1628 566.8876,-399.4137 571.1157,-404.9925"/>
</g>
<!-- statement9 -->
<g id="node5" class="node">
<title>statement9</title>
<polygon fill="none" stroke="#000000" points="411.9362,-324 357.9362,-324 357.9362,-288 411.9362,-288 411.9362,-324"/>
<text text-anchor="middle" x="384.9362" y="-301.8" font-family="Times,serif" font-size="14.00" fill="#000000">stmt</text>
</g>
<!-- stmt_list38&#45;&gt;statement9 -->
<g id="edge11" class="edge">
<title>stmt_list38-&gt;statement9</title>
<path fill="none" stroke="#000000" d="M570.526,-363.8427C567.3111,-362.4881 564.0718,-361.1812 560.9362,-360 513.8416,-342.2586 458.0976,-325.9129 422.1604,-315.9577"/>
<polygon fill="#000000" stroke="#000000" points="422.6943,-312.4748 412.1244,-313.2012 420.8403,-319.2248 422.6943,-312.4748"/>
</g>
<!-- statement14 -->
<g id="node16" class="node">
<title>statement14</title>
<polygon fill="none" stroke="#000000" points="565.9362,-324 511.9362,-324 511.9362,-288 565.9362,-288 565.9362,-324"/>
<text text-anchor="middle" x="538.9362" y="-301.8" font-family="Times,serif" font-size="14.00" fill="#000000">stmt</text>
</g>
<!-- stmt_list38&#45;&gt;statement14 -->
<g id="edge18" class="edge">
<title>stmt_list38-&gt;statement14</title>
<path fill="none" stroke="#000000" d="M585.291,-359.8314C578.0771,-351.454 569.3792,-341.3531 561.4757,-332.1749"/>
<polygon fill="#000000" stroke="#000000" points="563.9695,-329.7071 554.7921,-324.4133 558.6651,-334.2748 563.9695,-329.7071"/>
</g>
<!-- statement24 -->
<g id="node23" class="node">
<title>statement24</title>
<polygon fill="none" stroke="#000000" points="690.9362,-324 636.9362,-324 636.9362,-288 690.9362,-288 690.9362,-324"/>
<text text-anchor="middle" x="663.9362" y="-301.8" font-family="Times,serif" font-size="14.00" fill="#000000">stmt</text>
</g>
<!-- stmt_list38&#45;&gt;statement24 -->
<g id="edge31" class="edge">
<title>stmt_list38-&gt;statement24</title>
<path fill="none" stroke="#000000" d="M616.8338,-359.8314C624.164,-351.454 633.0022,-341.3531 641.0331,-332.1749"/>
<polygon fill="#000000" stroke="#000000" points="643.8735,-334.2438 647.8246,-324.4133 638.6055,-329.6343 643.8735,-334.2438"/>
</g>
<!-- statement34 -->
<g id="node36" class="node">
<title>statement34</title>
<polygon fill="none" stroke="#000000" points="954.9362,-324 900.9362,-324 900.9362,-288 954.9362,-288 954.9362,-324"/>
<text text-anchor="middle" x="927.9362" y="-301.8" font-family="Times,serif" font-size="14.00" fill="#000000">stmt</text>
</g>
<!-- stmt_list38&#45;&gt;statement34 -->
<g id="edge44" class="edge">
<title>stmt_list38-&gt;statement34</title>
<path fill="none" stroke="#000000" d="M631.4059,-371.2911C691.6055,-358.0361 825.5927,-328.5343 890.8231,-314.1717"/>
<polygon fill="#000000" stroke="#000000" points="891.6666,-317.5699 900.68,-312.0014 890.1613,-310.7336 891.6666,-317.5699"/>
</g>
<!-- Declaration8 -->
<g id="node6" class="node">
<title>Declaration8</title>
<polygon fill="none" stroke="#000000" points="239.7341,-252 158.1383,-252 158.1383,-216 239.7341,-216 239.7341,-252"/>
<text text-anchor="middle" x="198.9362" y="-229.8" font-family="Times,serif" font-size="14.00" fill="#000000">Declaration</text>
</g>
<!-- statement9&#45;&gt;Declaration8 -->
<g id="edge10" class="edge">
<title>statement9-&gt;Declaration8</title>
<path fill="none" stroke="#000000" d="M357.8902,-295.5306C329.5245,-284.5503 284.2933,-267.0415 249.3206,-253.5036"/>
<polygon fill="#000000" stroke="#000000" points="250.3403,-250.1453 239.7511,-249.7993 247.8133,-256.6733 250.3403,-250.1453"/>
</g>
<!-- Identifier39 -->
<g id="node7" class="node">
<title>Identifier39</title>
<polygon fill="none" stroke="#000000" points="74.9362,-180 20.9362,-180 20.9362,-144 74.9362,-144 74.9362,-180"/>
<text text-anchor="start" x="42.1059" y="-164.4" font-family="Times,serif" font-weight="bold" font-size="14.00" fill="#000000">Id</text>
<text text-anchor="start" x="30.061" y="-150.4" font-family="Times,serif" font-size="14.00" fill="#000000">array1</text>
</g>
<!-- Declaration8&#45;&gt;Identifier39 -->
<g id="edge1" class="edge">
<title>Declaration8-&gt;Identifier39</title>
<path fill="none" stroke="#000000" d="M159.9644,-215.9907C139.6484,-206.5364 114.2146,-194.5987 84.0865,-180.0274"/>
<polygon fill="#000000" stroke="#000000" points="85.5528,-176.8486 75.0277,-175.6351 82.4988,-183.1473 85.5528,-176.8486"/>
</g>
<!-- MyType2 -->
<g id="node8" class="node">
<title>MyType2</title>
<polygon fill="none" stroke="#000000" points="175.4166,-180 92.4558,-180 92.4558,-144 175.4166,-144 175.4166,-180"/>
<text text-anchor="start" x="119.5526" y="-164.4" font-family="Times,serif" font-weight="bold" font-size="14.00" fill="#000000">Type</text>
<text text-anchor="start" x="100.6967" y="-150.4" font-family="Times,serif" font-size="14.00" fill="#000000">Boxy Array</text>
</g>
<!-- Declaration8&#45;&gt;MyType2 -->
<g id="edge4" class="edge">
<title>Declaration8-&gt;MyType2</title>
<path fill="none" stroke="#000000" d="M182.534,-215.8314C174.8947,-207.3694 165.6679,-197.1489 157.3155,-187.8971"/>
<polygon fill="#000000" stroke="#000000" points="159.8583,-185.4906 150.5593,-180.4133 154.6624,-190.1813 159.8583,-185.4906"/>
</g>
<!-- expr7 -->
<g id="node11" class="node">
<title>expr7</title>
<polygon fill="none" stroke="#000000" points="305.8928,-180 219.9796,-180 219.9796,-144 305.8928,-144 305.8928,-180"/>
<text text-anchor="start" x="227.9579" y="-158.8" font-family="Times,serif" font-weight="bold" font-size="14.00" fill="#000000">ArrayLiteral</text>
</g>
<!-- Declaration8&#45;&gt;expr7 -->
<g id="edge9" class="edge">
<title>Declaration8-&gt;expr7</title>
<path fill="none" stroke="#000000" d="M215.0861,-215.8314C222.6079,-207.3694 231.6927,-197.1489 239.9166,-187.8971"/>
<polygon fill="#000000" stroke="#000000" points="242.5411,-190.2127 246.5689,-180.4133 237.3092,-185.5621 242.5411,-190.2127"/>
</g>
<!-- MyType1 -->
<g id="node9" class="node">
<title>MyType1</title>
<polygon fill="none" stroke="#000000" points="61.8087,-108 .0637,-108 .0637,-72 61.8087,-72 61.8087,-108"/>
<text text-anchor="start" x="16.5526" y="-92.4" font-family="Times,serif" font-weight="bold" font-size="14.00" fill="#000000">Type</text>
<text text-anchor="start" x="8" y="-78.4" font-family="Times,serif" font-size="14.00" fill="#000000">Number</text>
</g>
<!-- MyType2&#45;&gt;MyType1 -->
<g id="edge2" class="edge">
<title>MyType2-&gt;MyType1</title>
<path fill="none" stroke="#000000" d="M107.945,-143.8314C95.0146,-134.7927 79.214,-123.7476 65.2979,-114.0198"/>
<polygon fill="#000000" stroke="#000000" points="67.1205,-111.0235 56.9191,-108.1628 63.1099,-116.7608 67.1205,-111.0235"/>
</g>
<!-- array40 -->
<g id="node10" class="node">
<title>array40</title>
<polygon fill="none" stroke="#000000" points="133.9362,-108 79.9362,-108 79.9362,-72 133.9362,-72 133.9362,-108"/>
<text text-anchor="middle" x="106.9362" y="-85.8" font-family="Times,serif" font-size="14.00" fill="#000000">[]</text>
</g>
<!-- MyType2&#45;&gt;array40 -->
<g id="edge3" class="edge">
<title>MyType2-&gt;array40</title>
<path fill="none" stroke="#000000" d="M127.123,-143.8314C124.1718,-135.9617 120.6504,-126.5712 117.3812,-117.8533"/>
<polygon fill="#000000" stroke="#000000" points="120.6296,-116.5476 113.8412,-108.4133 114.0753,-119.0055 120.6296,-116.5476"/>
</g>
<!-- expr3 -->
<g id="node12" class="node">
<title>expr3</title>
<polygon fill="none" stroke="#000000" points="213.8087,-108 152.0637,-108 152.0637,-72 213.8087,-72 213.8087,-108"/>
<text text-anchor="start" x="160" y="-92.4" font-family="Times,serif" font-weight="bold" font-size="14.00" fill="#000000">Number</text>
<text text-anchor="start" x="179.4362" y="-78.4" font-family="Times,serif" font-size="14.00" fill="#000000">1</text>
</g>
<!-- expr7&#45;&gt;expr3 -->
<g id="edge5" class="edge">
<title>expr7-&gt;expr3</title>
<path fill="none" stroke="#000000" d="M242.7488,-143.8314C233.0848,-135.1337 221.3566,-124.5783 210.8546,-115.1265"/>
<polygon fill="#000000" stroke="#000000" points="212.8915,-112.251 203.1171,-108.1628 208.2087,-117.454 212.8915,-112.251"/>
</g>
<!-- expr4 -->
<g id="node13" class="node">
<title>expr4</title>
<polygon fill="none" stroke="#000000" points="293.8087,-108 232.0637,-108 232.0637,-72 293.8087,-72 293.8087,-108"/>
<text text-anchor="start" x="240" y="-92.4" font-family="Times,serif" font-weight="bold" font-size="14.00" fill="#000000">Number</text>
<text text-anchor="start" x="259.4362" y="-78.4" font-family="Times,serif" font-size="14.00" fill="#000000">2</text>
</g>
<!-- expr7&#45;&gt;expr4 -->
<g id="edge6" class="edge">
<title>expr7-&gt;expr4</title>
<path fill="none" stroke="#000000" d="M262.9362,-143.8314C262.9362,-136.131 262.9362,-126.9743 262.9362,-118.4166"/>
<polygon fill="#000000" stroke="#000000" points="266.4363,-118.4132 262.9362,-108.4133 259.4363,-118.4133 266.4363,-118.4132"/>
</g>
<!-- expr5 -->
<g id="node14" class="node">
<title>expr5</title>
<polygon fill="none" stroke="#000000" points="373.8087,-108 312.0637,-108 312.0637,-72 373.8087,-72 373.8087,-108"/>
<text text-anchor="start" x="320" y="-92.4" font-family="Times,serif" font-weight="bold" font-size="14.00" fill="#000000">Number</text>
<text text-anchor="start" x="339.4362" y="-78.4" font-family="Times,serif" font-size="14.00" fill="#000000">3</text>
</g>
<!-- expr7&#45;&gt;expr5 -->
<g id="edge7" class="edge">
<title>expr7-&gt;expr5</title>
<path fill="none" stroke="#000000" d="M283.1236,-143.8314C292.7876,-135.1337 304.5158,-124.5783 315.0178,-115.1265"/>
<polygon fill="#000000" stroke="#000000" points="317.6637,-117.454 322.7553,-108.1628 312.9809,-112.251 317.6637,-117.454"/>
</g>
<!-- expr6 -->
<g id="node15" class="node">
<title>expr6</title>
<polygon fill="none" stroke="#000000" points="453.8087,-108 392.0637,-108 392.0637,-72 453.8087,-72 453.8087,-108"/>
<text text-anchor="start" x="400" y="-92.4" font-family="Times,serif" font-weight="bold" font-size="14.00" fill="#000000">Number</text>
<text text-anchor="start" x="419.4362" y="-78.4" font-family="Times,serif" font-size="14.00" fill="#000000">4</text>
</g>
<!-- expr7&#45;&gt;expr6 -->
<g id="edge8" class="edge">
<title>expr7-&gt;expr6</title>
<path fill="none" stroke="#000000" d="M303.311,-143.8314C327.5838,-132.9086 358.3677,-119.0558 382.6286,-108.1384"/>
<polygon fill="#000000" stroke="#000000" points="384.2318,-111.2551 391.9147,-103.9597 381.3592,-104.8717 384.2318,-111.2551"/>
</g>
<!-- Declaration13 -->
<g id="node17" class="node">
<title>Declaration13</title>
<polygon fill="none" stroke="#000000" points="552.7341,-252 471.1383,-252 471.1383,-216 552.7341,-216 552.7341,-252"/>
<text text-anchor="middle" x="511.9362" y="-229.8" font-family="Times,serif" font-size="14.00" fill="#000000">Declaration</text>
</g>
<!-- statement14&#45;&gt;Declaration13 -->
<g id="edge17" class="edge">
<title>statement14-&gt;Declaration13</title>
<path fill="none" stroke="#000000" d="M532.123,-287.8314C529.1718,-279.9617 525.6504,-270.5712 522.3812,-261.8533"/>
<polygon fill="#000000" stroke="#000000" points="525.6296,-260.5476 518.8412,-252.4133 519.0753,-263.0055 525.6296,-260.5476"/>
</g>
<!-- Identifier41 -->
<g id="node18" class="node">
<title>Identifier41</title>
<polygon fill="none" stroke="#000000" points="432.9362,-180 378.9362,-180 378.9362,-144 432.9362,-144 432.9362,-180"/>
<text text-anchor="start" x="400.1059" y="-164.4" font-family="Times,serif" font-weight="bold" font-size="14.00" fill="#000000">Id</text>
<text text-anchor="start" x="388.061" y="-150.4" font-family="Times,serif" font-size="14.00" fill="#000000">array2</text>
</g>
<!-- Declaration13&#45;&gt;Identifier41 -->
<g id="edge12" class="edge">
<title>Declaration13-&gt;Identifier41</title>
<path fill="none" stroke="#000000" d="M485.1879,-215.8314C471.8809,-206.7927 455.6202,-195.7476 441.2987,-186.0198"/>
<polygon fill="#000000" stroke="#000000" points="442.9147,-182.8864 432.6759,-180.1628 438.9815,-188.677 442.9147,-182.8864"/>
</g>
<!-- MyType11 -->
<g id="node19" class="node">
<title>MyType11</title>
<polygon fill="none" stroke="#000000" points="547.3812,-180 450.4912,-180 450.4912,-144 547.3812,-144 547.3812,-180"/>
<text text-anchor="start" x="484.5526" y="-164.4" font-family="Times,serif" font-weight="bold" font-size="14.00" fill="#000000">Type</text>
<text text-anchor="start" x="458.7142" y="-150.4" font-family="Times,serif" font-size="14.00" fill="#000000">Generic Array</text>
</g>
<!-- Declaration13&#45;&gt;MyType11 -->
<g id="edge15" class="edge">
<title>Declaration13-&gt;MyType11</title>
<path fill="none" stroke="#000000" d="M508.6558,-215.8314C507.2654,-208.131 505.6121,-198.9743 504.067,-190.4166"/>
<polygon fill="#000000" stroke="#000000" points="507.482,-189.6322 502.2608,-180.4133 500.5934,-190.8761 507.482,-189.6322"/>
</g>
<!-- expr12 -->
<g id="node22" class="node">
<title>expr12</title>
<polygon fill="none" stroke="#000000" points="633.0191,-180 564.8533,-180 564.8533,-144 633.0191,-144 633.0191,-180"/>
<text text-anchor="start" x="572.8948" y="-164.4" font-family="Times,serif" font-weight="bold" font-size="14.00" fill="#000000">Identifier</text>
<text text-anchor="start" x="581.061" y="-150.4" font-family="Times,serif" font-size="14.00" fill="#000000">array1</text>
</g>
<!-- Declaration13&#45;&gt;expr12 -->
<g id="edge16" class="edge">
<title>Declaration13-&gt;expr12</title>
<path fill="none" stroke="#000000" d="M533.89,-215.8314C544.6057,-206.9632 557.6551,-196.1637 569.2452,-186.5718"/>
<polygon fill="#000000" stroke="#000000" points="571.517,-189.2349 576.9895,-180.1628 567.054,-183.8422 571.517,-189.2349"/>
</g>
<!-- array42 -->
<g id="node20" class="node">
<title>array42</title>
<polygon fill="none" stroke="#000000" points="525.9362,-108 471.9362,-108 471.9362,-72 525.9362,-72 525.9362,-108"/>
<text text-anchor="middle" x="498.9362" y="-85.8" font-family="Times,serif" font-size="14.00" fill="#000000">Array</text>
</g>
<!-- MyType11&#45;&gt;array42 -->
<g id="edge13" class="edge">
<title>MyType11-&gt;array42</title>
<path fill="none" stroke="#000000" d="M498.9362,-143.8314C498.9362,-136.131 498.9362,-126.9743 498.9362,-118.4166"/>
<polygon fill="#000000" stroke="#000000" points="502.4363,-118.4132 498.9362,-108.4133 495.4363,-118.4133 502.4363,-118.4132"/>
</g>
<!-- MyType10 -->
<g id="node21" class="node">
<title>MyType10</title>
<polygon fill="none" stroke="#000000" points="605.8087,-108 544.0637,-108 544.0637,-72 605.8087,-72 605.8087,-108"/>
<text text-anchor="start" x="560.5526" y="-92.4" font-family="Times,serif" font-weight="bold" font-size="14.00" fill="#000000">Type</text>
<text text-anchor="start" x="552" y="-78.4" font-family="Times,serif" font-size="14.00" fill="#000000">Number</text>
</g>
<!-- MyType11&#45;&gt;MyType10 -->
<g id="edge14" class="edge">
<title>MyType11-&gt;MyType10</title>
<path fill="none" stroke="#000000" d="M518.1142,-143.8314C527.295,-135.1337 538.4368,-124.5783 548.4138,-115.1265"/>
<polygon fill="#000000" stroke="#000000" points="550.9119,-117.5811 555.7643,-108.1628 546.0977,-112.4995 550.9119,-117.5811"/>
</g>
<!-- Declaration23 -->
<g id="node24" class="node">
<title>Declaration23</title>
<polygon fill="none" stroke="#000000" points="761.7341,-252 680.1383,-252 680.1383,-216 761.7341,-216 761.7341,-252"/>
<text text-anchor="middle" x="720.9362" y="-229.8" font-family="Times,serif" font-size="14.00" fill="#000000">Declaration</text>
</g>
<!-- statement24&#45;&gt;Declaration23 -->
<g id="edge30" class="edge">
<title>statement24-&gt;Declaration23</title>
<path fill="none" stroke="#000000" d="M678.3197,-287.8314C684.8848,-279.5386 692.7869,-269.557 699.994,-260.4533"/>
<polygon fill="#000000" stroke="#000000" points="702.8961,-262.4262 706.359,-252.4133 697.4078,-258.0813 702.8961,-262.4262"/>
</g>
<!-- Identifier43 -->
<g id="node25" class="node">
<title>Identifier43</title>
<polygon fill="none" stroke="#000000" points="704.9362,-180 650.9362,-180 650.9362,-144 704.9362,-144 704.9362,-180"/>
<text text-anchor="start" x="672.1059" y="-164.4" font-family="Times,serif" font-weight="bold" font-size="14.00" fill="#000000">Id</text>
<text text-anchor="start" x="660.061" y="-150.4" font-family="Times,serif" font-size="14.00" fill="#000000">array3</text>
</g>
<!-- Declaration23&#45;&gt;Identifier43 -->
<g id="edge19" class="edge">
<title>Declaration23-&gt;Identifier43</title>
<path fill="none" stroke="#000000" d="M710.0855,-215.8314C705.2339,-207.7079 699.4145,-197.9637 694.0682,-189.0118"/>
<polygon fill="#000000" stroke="#000000" points="697.0654,-187.2041 688.933,-180.4133 691.0556,-190.7933 697.0654,-187.2041"/>
</g>
<!-- MyType17 -->
<g id="node26" class="node">
<title>MyType17</title>
<polygon fill="none" stroke="#000000" points="805.4166,-180 722.4558,-180 722.4558,-144 805.4166,-144 805.4166,-180"/>
<text text-anchor="start" x="749.5526" y="-164.4" font-family="Times,serif" font-weight="bold" font-size="14.00" fill="#000000">Type</text>
<text text-anchor="start" x="730.6967" y="-150.4" font-family="Times,serif" font-size="14.00" fill="#000000">Boxy Array</text>
</g>
<!-- Declaration23&#45;&gt;MyType17 -->
<g id="edge24" class="edge">
<title>Declaration23-&gt;MyType17</title>
<path fill="none" stroke="#000000" d="M731.7869,-215.8314C736.6385,-207.7079 742.4579,-197.9637 747.8042,-189.0118"/>
<polygon fill="#000000" stroke="#000000" points="750.8168,-190.7933 752.9394,-180.4133 744.807,-187.2041 750.8168,-190.7933"/>
</g>
<!-- expr22 -->
<g id="node31" class="node">
<title>expr22</title>
<polygon fill="none" stroke="#000000" points="964.8928,-180 878.9796,-180 878.9796,-144 964.8928,-144 964.8928,-180"/>
<text text-anchor="start" x="886.9579" y="-158.8" font-family="Times,serif" font-weight="bold" font-size="14.00" fill="#000000">ArrayLiteral</text>
</g>
<!-- Declaration23&#45;&gt;expr22 -->
<g id="edge29" class="edge">
<title>Declaration23-&gt;expr22</title>
<path fill="none" stroke="#000000" d="M761.6115,-219.4297C792.6202,-208.3221 835.5756,-192.9352 869.2194,-180.8836"/>
<polygon fill="#000000" stroke="#000000" points="870.656,-184.0869 878.8899,-177.4196 868.2953,-177.4969 870.656,-184.0869"/>
</g>
<!-- MyType16 -->
<g id="node27" class="node">
<title>MyType16</title>
<polygon fill="none" stroke="#000000" points="712.4166,-108 629.4558,-108 629.4558,-72 712.4166,-72 712.4166,-108"/>
<text text-anchor="start" x="656.5526" y="-92.4" font-family="Times,serif" font-weight="bold" font-size="14.00" fill="#000000">Type</text>
<text text-anchor="start" x="637.6967" y="-78.4" font-family="Times,serif" font-size="14.00" fill="#000000">Boxy Array</text>
</g>
<!-- MyType17&#45;&gt;MyType16 -->
<g id="edge22" class="edge">
<title>MyType17-&gt;MyType16</title>
<path fill="none" stroke="#000000" d="M740.4684,-143.8314C728.9035,-134.8779 714.7958,-123.9558 702.3179,-114.2955"/>
<polygon fill="#000000" stroke="#000000" points="704.4464,-111.5171 694.3965,-108.1628 700.1612,-117.0521 704.4464,-111.5171"/>
</g>
<!-- array45 -->
<g id="node30" class="node">
<title>array45</title>
<polygon fill="none" stroke="#000000" points="783.9362,-108 729.9362,-108 729.9362,-72 783.9362,-72 783.9362,-108"/>
<text text-anchor="middle" x="756.9362" y="-85.8" font-family="Times,serif" font-size="14.00" fill="#000000">[]</text>
</g>
<!-- MyType17&#45;&gt;array45 -->
<g id="edge23" class="edge">
<title>MyType17-&gt;array45</title>
<path fill="none" stroke="#000000" d="M762.1698,-143.8314C761.4212,-136.131 760.5309,-126.9743 759.6989,-118.4166"/>
<polygon fill="#000000" stroke="#000000" points="763.1777,-118.0276 758.7264,-108.4133 756.2106,-118.7051 763.1777,-118.0276"/>
</g>
<!-- MyType15 -->
<g id="node28" class="node">
<title>MyType15</title>
<polygon fill="none" stroke="#000000" points="663.8087,-36 602.0637,-36 602.0637,0 663.8087,0 663.8087,-36"/>
<text text-anchor="start" x="618.5526" y="-20.4" font-family="Times,serif" font-weight="bold" font-size="14.00" fill="#000000">Type</text>
<text text-anchor="start" x="610" y="-6.4" font-family="Times,serif" font-size="14.00" fill="#000000">Number</text>
</g>
<!-- MyType16&#45;&gt;MyType15 -->
<g id="edge20" class="edge">
<title>MyType16-&gt;MyType15</title>
<path fill="none" stroke="#000000" d="M661.3472,-71.8314C657.1045,-63.7925 652.0241,-54.1666 647.3402,-45.2918"/>
<polygon fill="#000000" stroke="#000000" points="650.4173,-43.6235 642.6543,-36.4133 644.2266,-46.8908 650.4173,-43.6235"/>
</g>
<!-- array44 -->
<g id="node29" class="node">
<title>array44</title>
<polygon fill="none" stroke="#000000" points="735.9362,-36 681.9362,-36 681.9362,0 735.9362,0 735.9362,-36"/>
<text text-anchor="middle" x="708.9362" y="-13.8" font-family="Times,serif" font-size="14.00" fill="#000000">[]</text>
</g>
<!-- MyType16&#45;&gt;array44 -->
<g id="edge21" class="edge">
<title>MyType16-&gt;array44</title>
<path fill="none" stroke="#000000" d="M680.5252,-71.8314C684.7679,-63.7925 689.8483,-54.1666 694.5322,-45.2918"/>
<polygon fill="#000000" stroke="#000000" points="697.6458,-46.8908 699.2181,-36.4133 691.4551,-43.6235 697.6458,-46.8908"/>
</g>
<!-- expr18 -->
<g id="node32" class="node">
<title>expr18</title>
<polygon fill="none" stroke="#000000" points="870.0191,-108 801.8533,-108 801.8533,-72 870.0191,-72 870.0191,-108"/>
<text text-anchor="start" x="809.8948" y="-92.4" font-family="Times,serif" font-weight="bold" font-size="14.00" fill="#000000">Identifier</text>
<text text-anchor="start" x="818.061" y="-78.4" font-family="Times,serif" font-size="14.00" fill="#000000">array1</text>
</g>
<!-- expr22&#45;&gt;expr18 -->
<g id="edge25" class="edge">
<title>expr22-&gt;expr18</title>
<path fill="none" stroke="#000000" d="M900.2348,-143.8314C889.7441,-135.0485 876.9907,-124.3712 865.6168,-114.8489"/>
<polygon fill="#000000" stroke="#000000" points="867.5451,-111.8986 857.6307,-108.1628 863.0515,-117.2659 867.5451,-111.8986"/>
</g>
<!-- expr19 -->
<g id="node33" class="node">
<title>expr19</title>
<polygon fill="none" stroke="#000000" points="956.0191,-108 887.8533,-108 887.8533,-72 956.0191,-72 956.0191,-108"/>
<text text-anchor="start" x="895.8948" y="-92.4" font-family="Times,serif" font-weight="bold" font-size="14.00" fill="#000000">Identifier</text>
<text text-anchor="start" x="904.061" y="-78.4" font-family="Times,serif" font-size="14.00" fill="#000000">array1</text>
</g>
<!-- expr22&#45;&gt;expr19 -->
<g id="edge26" class="edge">
<title>expr22-&gt;expr19</title>
<path fill="none" stroke="#000000" d="M921.9362,-143.8314C921.9362,-136.131 921.9362,-126.9743 921.9362,-118.4166"/>
<polygon fill="#000000" stroke="#000000" points="925.4363,-118.4132 921.9362,-108.4133 918.4363,-118.4133 925.4363,-118.4132"/>
</g>
<!-- expr20 -->
<g id="node34" class="node">
<title>expr20</title>
<polygon fill="none" stroke="#000000" points="1042.0191,-108 973.8533,-108 973.8533,-72 1042.0191,-72 1042.0191,-108"/>
<text text-anchor="start" x="981.8948" y="-92.4" font-family="Times,serif" font-weight="bold" font-size="14.00" fill="#000000">Identifier</text>
<text text-anchor="start" x="990.061" y="-78.4" font-family="Times,serif" font-size="14.00" fill="#000000">array1</text>
</g>
<!-- expr22&#45;&gt;expr20 -->
<g id="edge27" class="edge">
<title>expr22-&gt;expr20</title>
<path fill="none" stroke="#000000" d="M943.6376,-143.8314C954.1283,-135.0485 966.8817,-124.3712 978.2556,-114.8489"/>
<polygon fill="#000000" stroke="#000000" points="980.8209,-117.2659 986.2417,-108.1628 976.3273,-111.8986 980.8209,-117.2659"/>
</g>
<!-- expr21 -->
<g id="node35" class="node">
<title>expr21</title>
<polygon fill="none" stroke="#000000" points="1128.0191,-108 1059.8533,-108 1059.8533,-72 1128.0191,-72 1128.0191,-108"/>
<text text-anchor="start" x="1067.8948" y="-92.4" font-family="Times,serif" font-weight="bold" font-size="14.00" fill="#000000">Identifier</text>
<text text-anchor="start" x="1076.061" y="-78.4" font-family="Times,serif" font-size="14.00" fill="#000000">array1</text>
</g>
<!-- expr22&#45;&gt;expr21 -->
<g id="edge28" class="edge">
<title>expr22-&gt;expr21</title>
<path fill="none" stroke="#000000" d="M964.8954,-144.0171C991.0381,-133.0736 1024.3302,-119.1374 1050.5501,-108.1616"/>
<polygon fill="#000000" stroke="#000000" points="1051.9909,-111.3528 1059.8638,-104.2629 1049.2879,-104.8958 1051.9909,-111.3528"/>
</g>
<!-- Declaration33 -->
<g id="node37" class="node">
<title>Declaration33</title>
<polygon fill="none" stroke="#000000" points="1212.7341,-252 1131.1383,-252 1131.1383,-216 1212.7341,-216 1212.7341,-252"/>
<text text-anchor="middle" x="1171.9362" y="-229.8" font-family="Times,serif" font-size="14.00" fill="#000000">Declaration</text>
</g>
<!-- statement34&#45;&gt;Declaration33 -->
<g id="edge43" class="edge">
<title>statement34-&gt;Declaration33</title>
<path fill="none" stroke="#000000" d="M954.9807,-298.0196C994.9962,-286.2118 1070.6791,-263.8791 1121.2207,-248.9652"/>
<polygon fill="#000000" stroke="#000000" points="1122.3752,-252.2738 1130.9757,-246.0867 1120.394,-245.56 1122.3752,-252.2738"/>
</g>
<!-- Identifier46 -->
<g id="node38" class="node">
<title>Identifier46</title>
<polygon fill="none" stroke="#000000" points="1152.9362,-180 1098.9362,-180 1098.9362,-144 1152.9362,-144 1152.9362,-180"/>
<text text-anchor="start" x="1120.1059" y="-164.4" font-family="Times,serif" font-weight="bold" font-size="14.00" fill="#000000">Id</text>
<text text-anchor="start" x="1108.061" y="-150.4" font-family="Times,serif" font-size="14.00" fill="#000000">array4</text>
</g>
<!-- Declaration33&#45;&gt;Identifier46 -->
<g id="edge32" class="edge">
<title>Declaration33-&gt;Identifier46</title>
<path fill="none" stroke="#000000" d="M1160.3285,-215.8314C1155.1384,-207.7079 1148.913,-197.9637 1143.1937,-189.0118"/>
<polygon fill="#000000" stroke="#000000" points="1146.0336,-186.9559 1137.7002,-180.4133 1140.1347,-190.7246 1146.0336,-186.9559"/>
</g>
<!-- MyType27 -->
<g id="node39" class="node">
<title>MyType27</title>
<polygon fill="none" stroke="#000000" points="1267.3812,-180 1170.4912,-180 1170.4912,-144 1267.3812,-144 1267.3812,-180"/>
<text text-anchor="start" x="1204.5526" y="-164.4" font-family="Times,serif" font-weight="bold" font-size="14.00" fill="#000000">Type</text>
<text text-anchor="start" x="1178.7142" y="-150.4" font-family="Times,serif" font-size="14.00" fill="#000000">Generic Array</text>
</g>
<!-- Declaration33&#45;&gt;MyType27 -->
<g id="edge37" class="edge">
<title>Declaration33-&gt;MyType27</title>
<path fill="none" stroke="#000000" d="M1183.7963,-215.8314C1189.0991,-207.7079 1195.4599,-197.9637 1201.3035,-189.0118"/>
<polygon fill="#000000" stroke="#000000" points="1204.381,-190.7003 1206.9164,-180.4133 1198.5193,-186.8739 1204.381,-190.7003"/>
</g>
<!-- expr32 -->
<g id="node44" class="node">
<title>expr32</title>
<polygon fill="none" stroke="#000000" points="1494.8928,-180 1408.9796,-180 1408.9796,-144 1494.8928,-144 1494.8928,-180"/>
<text text-anchor="start" x="1416.9579" y="-158.8" font-family="Times,serif" font-weight="bold" font-size="14.00" fill="#000000">ArrayLiteral</text>
</g>
<!-- Declaration33&#45;&gt;expr32 -->
<g id="edge42" class="edge">
<title>Declaration33-&gt;expr32</title>
<path fill="none" stroke="#000000" d="M1212.6506,-223.5306C1261.9122,-210.8633 1344.9633,-189.5073 1399.1128,-175.5832"/>
<polygon fill="#000000" stroke="#000000" points="1400.0595,-178.9537 1408.8727,-173.0735 1398.3161,-172.1742 1400.0595,-178.9537"/>
</g>
<!-- array47 -->
<g id="node40" class="node">
<title>array47</title>
<polygon fill="none" stroke="#000000" points="1199.9362,-108 1145.9362,-108 1145.9362,-72 1199.9362,-72 1199.9362,-108"/>
<text text-anchor="middle" x="1172.9362" y="-85.8" font-family="Times,serif" font-size="14.00" fill="#000000">Array</text>
</g>
<!-- MyType27&#45;&gt;array47 -->
<g id="edge33" class="edge">
<title>MyType27-&gt;array47</title>
<path fill="none" stroke="#000000" d="M1207.3285,-143.8314C1202.1384,-135.7079 1195.913,-125.9637 1190.1937,-117.0118"/>
<polygon fill="#000000" stroke="#000000" points="1193.0336,-114.9559 1184.7002,-108.4133 1187.1347,-118.7246 1193.0336,-114.9559"/>
</g>
<!-- MyType26 -->
<g id="node41" class="node">
<title>MyType26</title>
<polygon fill="none" stroke="#000000" points="1314.3812,-108 1217.4912,-108 1217.4912,-72 1314.3812,-72 1314.3812,-108"/>
<text text-anchor="start" x="1251.5526" y="-92.4" font-family="Times,serif" font-weight="bold" font-size="14.00" fill="#000000">Type</text>
<text text-anchor="start" x="1225.7142" y="-78.4" font-family="Times,serif" font-size="14.00" fill="#000000">Generic Array</text>
</g>
<!-- MyType27&#45;&gt;MyType26 -->
<g id="edge36" class="edge">
<title>MyType27-&gt;MyType26</title>
<path fill="none" stroke="#000000" d="M1230.7963,-143.8314C1236.0991,-135.7079 1242.4599,-125.9637 1248.3035,-117.0118"/>
<polygon fill="#000000" stroke="#000000" points="1251.381,-118.7003 1253.9164,-108.4133 1245.5193,-114.8739 1251.381,-118.7003"/>
</g>
<!-- array48 -->
<g id="node42" class="node">
<title>array48</title>
<polygon fill="none" stroke="#000000" points="1254.9362,-36 1200.9362,-36 1200.9362,0 1254.9362,0 1254.9362,-36"/>
<text text-anchor="middle" x="1227.9362" y="-13.8" font-family="Times,serif" font-size="14.00" fill="#000000">Array</text>
</g>
<!-- MyType26&#45;&gt;array48 -->
<g id="edge34" class="edge">
<title>MyType26-&gt;array48</title>
<path fill="none" stroke="#000000" d="M1256.3472,-71.8314C1252.1045,-63.7925 1247.0241,-54.1666 1242.3402,-45.2918"/>
<polygon fill="#000000" stroke="#000000" points="1245.4173,-43.6235 1237.6543,-36.4133 1239.2266,-46.8908 1245.4173,-43.6235"/>
</g>
<!-- MyType25 -->
<g id="node43" class="node">
<title>MyType25</title>
<polygon fill="none" stroke="#000000" points="1334.8087,-36 1273.0637,-36 1273.0637,0 1334.8087,0 1334.8087,-36"/>
<text text-anchor="start" x="1289.5526" y="-20.4" font-family="Times,serif" font-weight="bold" font-size="14.00" fill="#000000">Type</text>
<text text-anchor="start" x="1281" y="-6.4" font-family="Times,serif" font-size="14.00" fill="#000000">Number</text>
</g>
<!-- MyType26&#45;&gt;MyType25 -->
<g id="edge35" class="edge">
<title>MyType26-&gt;MyType25</title>
<path fill="none" stroke="#000000" d="M1275.5252,-71.8314C1279.7679,-63.7925 1284.8483,-54.1666 1289.5322,-45.2918"/>
<polygon fill="#000000" stroke="#000000" points="1292.6458,-46.8908 1294.2181,-36.4133 1286.4551,-43.6235 1292.6458,-46.8908"/>
</g>
<!-- expr28 -->
<g id="node45" class="node">
<title>expr28</title>
<polygon fill="none" stroke="#000000" points="1400.0191,-108 1331.8533,-108 1331.8533,-72 1400.0191,-72 1400.0191,-108"/>
<text text-anchor="start" x="1339.8948" y="-92.4" font-family="Times,serif" font-weight="bold" font-size="14.00" fill="#000000">Identifier</text>
<text text-anchor="start" x="1348.061" y="-78.4" font-family="Times,serif" font-size="14.00" fill="#000000">array1</text>
</g>
<!-- expr32&#45;&gt;expr28 -->
<g id="edge38" class="edge">
<title>expr32-&gt;expr28</title>
<path fill="none" stroke="#000000" d="M1430.2348,-143.8314C1419.7441,-135.0485 1406.9907,-124.3712 1395.6168,-114.8489"/>
<polygon fill="#000000" stroke="#000000" points="1397.5451,-111.8986 1387.6307,-108.1628 1393.0515,-117.2659 1397.5451,-111.8986"/>
</g>
<!-- expr29 -->
<g id="node46" class="node">
<title>expr29</title>
<polygon fill="none" stroke="#000000" points="1486.0191,-108 1417.8533,-108 1417.8533,-72 1486.0191,-72 1486.0191,-108"/>
<text text-anchor="start" x="1425.8948" y="-92.4" font-family="Times,serif" font-weight="bold" font-size="14.00" fill="#000000">Identifier</text>
<text text-anchor="start" x="1434.061" y="-78.4" font-family="Times,serif" font-size="14.00" fill="#000000">array1</text>
</g>
<!-- expr32&#45;&gt;expr29 -->
<g id="edge39" class="edge">
<title>expr32-&gt;expr29</title>
<path fill="none" stroke="#000000" d="M1451.9362,-143.8314C1451.9362,-136.131 1451.9362,-126.9743 1451.9362,-118.4166"/>
<polygon fill="#000000" stroke="#000000" points="1455.4363,-118.4132 1451.9362,-108.4133 1448.4363,-118.4133 1455.4363,-118.4132"/>
</g>
<!-- expr30 -->
<g id="node47" class="node">
<title>expr30</title>
<polygon fill="none" stroke="#000000" points="1572.0191,-108 1503.8533,-108 1503.8533,-72 1572.0191,-72 1572.0191,-108"/>
<text text-anchor="start" x="1511.8948" y="-92.4" font-family="Times,serif" font-weight="bold" font-size="14.00" fill="#000000">Identifier</text>
<text text-anchor="start" x="1520.061" y="-78.4" font-family="Times,serif" font-size="14.00" fill="#000000">array1</text>
</g>
<!-- expr32&#45;&gt;expr30 -->
<g id="edge40" class="edge">
<title>expr32-&gt;expr30</title>
<path fill="none" stroke="#000000" d="M1473.6376,-143.8314C1484.1283,-135.0485 1496.8817,-124.3712 1508.2556,-114.8489"/>
<polygon fill="#000000" stroke="#000000" points="1510.8209,-117.2659 1516.2417,-108.1628 1506.3273,-111.8986 1510.8209,-117.2659"/>
</g>
<!-- expr31 -->
<g id="node48" class="node">
<title>expr31</title>
<polygon fill="none" stroke="#000000" points="1658.0191,-108 1589.8533,-108 1589.8533,-72 1658.0191,-72 1658.0191,-108"/>
<text text-anchor="start" x="1597.8948" y="-92.4" font-family="Times,serif" font-weight="bold" font-size="14.00" fill="#000000">Identifier</text>
<text text-anchor="start" x="1606.061" y="-78.4" font-family="Times,serif" font-size="14.00" fill="#000000">array1</text>
</g>
<!-- expr32&#45;&gt;expr31 -->
<g id="edge41" class="edge">
<title>expr32-&gt;expr31</title>
<path fill="none" stroke="#000000" d="M1494.8954,-144.0171C1521.0381,-133.0736 1554.3302,-119.1374 1580.5501,-108.1616"/>
<polygon fill="#000000" stroke="#000000" points="1581.9909,-111.3528 1589.8638,-104.2629 1579.2879,-104.8958 1581.9909,-111.3528"/>
</g>
</g>
</svg>