<?xml version="1.0" encoding="UTF-8" standalone="no"?><!DOCTYPE svg PUBLIC "-//W3C//DTD SVG 1.1//EN" "http://www.w3.org/Graphics/SVG/1.1/DTD/svg11.dtd"><!-- Generated by graphviz version 2.40.1 (20161225.0304)
 --><!-- Title: G Pages: 1 --><svg xmlns="http://www.w3.org/2000/svg" xmlns:xlink="http://www.w3.org/1999/xlink" width="1063pt" height="1268pt" viewBox="0.00 0.00 1062.85 1268.00">
<g id="graph0" class="graph" transform="scale(1 1) rotate(0) translate(4 1264)">
<title>G</title>
<polygon fill="#ffffff" stroke="transparent" points="-4,4 -4,-1264 1058.8475,-1264 1058.8475,4 -4,4"/>
<!-- globalInstructions37 -->
<g id="node1" class="node">
<title>globalInstructions37</title>
<polygon fill="none" stroke="#000000" points="183.2042,-1260 128.9992,-1260 128.9992,-1224 183.2042,-1224 183.2042,-1260"/>
<text text-anchor="middle" x="156.1017" y="-1237.8" font-family="Times,serif" font-size="14.00" fill="#000000">Global</text>
</g>
<!-- type_defs38 -->
<g id="node2" class="node">
<title>type_defs38</title>
<polygon fill="none" stroke="#000000" points="92.3053,-1188 -.1019,-1188 -.1019,-1152 92.3053,-1152 92.3053,-1188"/>
<text text-anchor="middle" x="46.1017" y="-1165.8" font-family="Times,serif" font-size="14.00" fill="#000000">Type defs list</text>
</g>
<!-- globalInstructions37&#45;&gt;type_defs38 -->
<g id="edge56" class="edge">
<title>globalInstructions37-&gt;type_defs38</title>
<path fill="none" stroke="#000000" d="M128.9107,-1224.2022C114.8702,-1215.0121 97.5487,-1203.6744 82.383,-1193.7478"/>
<polygon fill="#000000" stroke="#000000" points="84.0278,-1190.6413 73.744,-1188.0931 80.1942,-1196.4982 84.0278,-1190.6413"/>
</g>
<!-- function_defs39 -->
<g id="node3" class="node">
<title>function_defs39</title>
<polygon fill="none" stroke="#000000" points="202.2008,-1188 110.0026,-1188 110.0026,-1152 202.2008,-1152 202.2008,-1188"/>
<text text-anchor="middle" x="156.1017" y="-1165.8" font-family="Times,serif" font-size="14.00" fill="#000000">Function defs</text>
</g>
<!-- globalInstructions37&#45;&gt;function_defs39 -->
<g id="edge57" class="edge">
<title>globalInstructions37-&gt;function_defs39</title>
<path fill="none" stroke="#000000" d="M156.1017,-1223.8314C156.1017,-1216.131 156.1017,-1206.9743 156.1017,-1198.4166"/>
<polygon fill="#000000" stroke="#000000" points="159.6018,-1198.4132 156.1017,-1188.4133 152.6018,-1198.4133 159.6018,-1198.4132"/>
</g>
<!-- stmt_list40 -->
<g id="node4" class="node">
<title>stmt_list40</title>
<polygon fill="none" stroke="#000000" points="281.3351,-1188 220.8683,-1188 220.8683,-1152 281.3351,-1152 281.3351,-1188"/>
<text text-anchor="middle" x="251.1017" y="-1165.8" font-family="Times,serif" font-size="14.00" fill="#000000">stmt list</text>
</g>
<!-- globalInstructions37&#45;&gt;stmt_list40 -->
<g id="edge58" class="edge">
<title>globalInstructions37-&gt;stmt_list40</title>
<path fill="none" stroke="#000000" d="M180.0742,-1223.8314C191.8878,-1214.8779 206.2989,-1203.9558 219.0452,-1194.2955"/>
<polygon fill="#000000" stroke="#000000" points="221.2812,-1196.9925 227.1369,-1188.1628 217.0531,-1191.4137 221.2812,-1196.9925"/>
</g>
<!-- statement3 -->
<g id="node5" class="node">
<title>statement3</title>
<polygon fill="none" stroke="#000000" points="241.1017,-1116 187.1017,-1116 187.1017,-1080 241.1017,-1080 241.1017,-1116"/>
<text text-anchor="middle" x="214.1017" y="-1093.8" font-family="Times,serif" font-size="14.00" fill="#000000">stmt</text>
</g>
<!-- stmt_list40&#45;&gt;statement3 -->
<g id="edge4" class="edge">
<title>stmt_list40-&gt;statement3</title>
<path fill="none" stroke="#000000" d="M241.765,-1151.8314C237.6774,-1143.8771 232.7913,-1134.369 228.2708,-1125.5723"/>
<polygon fill="#000000" stroke="#000000" points="231.2478,-1123.7078 223.5641,-1116.4133 225.0218,-1126.9074 231.2478,-1123.7078"/>
</g>
<!-- statement36 -->
<g id="node9" class="node">
<title>statement36</title>
<polygon fill="none" stroke="#000000" points="316.1017,-1116 262.1017,-1116 262.1017,-1080 316.1017,-1080 316.1017,-1116"/>
<text text-anchor="middle" x="289.1017" y="-1093.8" font-family="Times,serif" font-size="14.00" fill="#000000">stmt</text>
</g>
<!-- stmt_list40&#45;&gt;statement36 -->
<g id="edge55" class="edge">
<title>stmt_list40-&gt;statement36</title>
<path fill="none" stroke="#000000" d="M260.6907,-1151.8314C264.9334,-1143.7925 270.0138,-1134.1666 274.6977,-1125.2918"/>
<polygon fill="#000000" stroke="#000000" points="277.8113,-1126.8908 279.3836,-1116.4133 271.6206,-1123.6235 277.8113,-1126.8908"/>
</g>
<!-- Declaration2 -->
<g id="node6" class="node">
<title>Declaration2</title>
<polygon fill="none" stroke="#000000" points="247.8996,-1044 166.3038,-1044 166.3038,-1008 247.8996,-1008 247.8996,-1044"/>
<text text-anchor="middle" x="207.1017" y="-1021.8" font-family="Times,serif" font-size="14.00" fill="#000000">Declaration</text>
</g>
<!-- statement3&#45;&gt;Declaration2 -->
<g id="edge3" class="edge">
<title>statement3-&gt;Declaration2</title>
<path fill="none" stroke="#000000" d="M212.3353,-1079.8314C211.5867,-1072.131 210.6964,-1062.9743 209.8644,-1054.4166"/>
<polygon fill="#000000" stroke="#000000" points="213.3432,-1054.0276 208.8919,-1044.4133 206.3761,-1054.7051 213.3432,-1054.0276"/>
</g>
<!-- Identifier41 -->
<g id="node7" class="node">
<title>Identifier41</title>
<polygon fill="none" stroke="#000000" points="158.1017,-972 104.1017,-972 104.1017,-936 158.1017,-936 158.1017,-972"/>
<text text-anchor="start" x="125.2714" y="-956.4" font-family="Times,serif" font-weight="bold" font-size="14.00" fill="#000000">Id</text>
<text text-anchor="start" x="127.9944" y="-942.4" font-family="Times,serif" font-size="14.00" fill="#000000">a</text>
</g>
<!-- Declaration2&#45;&gt;Identifier41 -->
<g id="edge1" class="edge">
<title>Declaration2-&gt;Identifier41</title>
<path fill="none" stroke="#000000" d="M187.9237,-1007.8314C178.7429,-999.1337 167.6011,-988.5783 157.6241,-979.1265"/>
<polygon fill="#000000" stroke="#000000" points="159.9402,-976.4995 150.2736,-972.1628 155.126,-981.5811 159.9402,-976.4995"/>
</g>
<!-- expr1 -->
<g id="node8" class="node">
<title>expr1</title>
<polygon fill="none" stroke="#000000" points="237.9742,-972 176.2292,-972 176.2292,-936 237.9742,-936 237.9742,-972"/>
<text text-anchor="start" x="184.1655" y="-956.4" font-family="Times,serif" font-weight="bold" font-size="14.00" fill="#000000">Number</text>
<text text-anchor="start" x="200.1017" y="-942.4" font-family="Times,serif" font-size="14.00" fill="#000000">20</text>
</g>
<!-- Declaration2&#45;&gt;expr1 -->
<g id="edge2" class="edge">
<title>Declaration2-&gt;expr1</title>
<path fill="none" stroke="#000000" d="M207.1017,-1007.8314C207.1017,-1000.131 207.1017,-990.9743 207.1017,-982.4166"/>
<polygon fill="#000000" stroke="#000000" points="210.6018,-982.4132 207.1017,-972.4133 203.6018,-982.4133 210.6018,-982.4132"/>
</g>
<!-- IfStatement42 -->
<g id="node10" class="node">
<title>IfStatement42</title>
<polygon fill="none" stroke="#000000" points="352.1017,-1044 298.1017,-1044 298.1017,-1008 352.1017,-1008 352.1017,-1044"/>
<text text-anchor="middle" x="325.1017" y="-1021.8" font-family="Times,serif" font-size="14.00" fill="#000000">If</text>
</g>
<!-- statement36&#45;&gt;IfStatement42 -->
<g id="edge54" class="edge">
<title>statement36-&gt;IfStatement42</title>
<path fill="none" stroke="#000000" d="M298.186,-1079.8314C302.1632,-1071.8771 306.9172,-1062.369 311.3156,-1053.5723"/>
<polygon fill="#000000" stroke="#000000" points="314.5534,-1054.9228 315.8951,-1044.4133 308.2924,-1051.7923 314.5534,-1054.9228"/>
</g>
<!-- expr6 -->
<g id="node11" class="node">
<title>expr6</title>
<polygon fill="none" stroke="#000000" points="310.1017,-972 256.1017,-972 256.1017,-936 310.1017,-936 310.1017,-972"/>
<text text-anchor="middle" x="283.1017" y="-949.8" font-family="Times,serif" font-size="14.00" fill="#000000">&lt;=</text>
</g>
<!-- IfStatement42&#45;&gt;expr6 -->
<g id="edge7" class="edge">
<title>IfStatement42-&gt;expr6</title>
<path fill="none" stroke="#000000" d="M314.5033,-1007.8314C309.814,-999.7925 304.1989,-990.1666 299.0219,-981.2918"/>
<polygon fill="#000000" stroke="#000000" points="301.9048,-979.2875 293.8428,-972.4133 295.8583,-982.8146 301.9048,-979.2875"/>
</g>
<!-- stmt_list43 -->
<g id="node14" class="node">
<title>stmt_list43</title>
<polygon fill="none" stroke="#000000" points="388.3351,-972 327.8683,-972 327.8683,-936 388.3351,-936 388.3351,-972"/>
<text text-anchor="middle" x="358.1017" y="-949.8" font-family="Times,serif" font-size="14.00" fill="#000000">stmt list</text>
</g>
<!-- IfStatement42&#45;&gt;stmt_list43 -->
<g id="edge15" class="edge">
<title>IfStatement42-&gt;stmt_list43</title>
<path fill="none" stroke="#000000" d="M333.429,-1007.8314C337.0747,-999.8771 341.4326,-990.369 345.4644,-981.5723"/>
<polygon fill="#000000" stroke="#000000" points="348.6774,-982.9622 349.6623,-972.4133 342.314,-980.0456 348.6774,-982.9622"/>
</g>
<!-- Else46 -->
<g id="node22" class="node">
<title>Else46</title>
<polygon fill="none" stroke="#000000" points="506.1017,-972 452.1017,-972 452.1017,-936 506.1017,-936 506.1017,-972"/>
<text text-anchor="middle" x="479.1017" y="-949.8" font-family="Times,serif" font-size="14.00" fill="#000000">else</text>
</g>
<!-- IfStatement42&#45;&gt;Else46 -->
<g id="edge16" class="edge">
<title>IfStatement42-&gt;Else46</title>
<path fill="none" stroke="#000000" d="M352.2793,-1013.2936C377.3827,-1001.5569 414.8675,-984.0316 442.5792,-971.0755"/>
<polygon fill="#000000" stroke="#000000" points="444.3607,-974.1062 451.9372,-966.7003 441.396,-967.765 444.3607,-974.1062"/>
</g>
<!-- expr4 -->
<g id="node12" class="node">
<title>expr4</title>
<polygon fill="none" stroke="#000000" points="234.1846,-900 166.0188,-900 166.0188,-864 234.1846,-864 234.1846,-900"/>
<text text-anchor="start" x="174.0603" y="-884.4" font-family="Times,serif" font-weight="bold" font-size="14.00" fill="#000000">Identifier</text>
<text text-anchor="start" x="196.9944" y="-870.4" font-family="Times,serif" font-size="14.00" fill="#000000">a</text>
</g>
<!-- expr6&#45;&gt;expr4 -->
<g id="edge5" class="edge">
<title>expr6-&gt;expr4</title>
<path fill="none" stroke="#000000" d="M262.1573,-935.8314C252.0326,-927.0485 239.724,-916.3712 228.7469,-906.8489"/>
<polygon fill="#000000" stroke="#000000" points="230.8868,-904.0718 221.0394,-900.1628 226.2998,-909.3595 230.8868,-904.0718"/>
</g>
<!-- expr5 -->
<g id="node13" class="node">
<title>expr5</title>
<polygon fill="none" stroke="#000000" points="313.9742,-900 252.2292,-900 252.2292,-864 313.9742,-864 313.9742,-900"/>
<text text-anchor="start" x="260.1655" y="-884.4" font-family="Times,serif" font-weight="bold" font-size="14.00" fill="#000000">Number</text>
<text text-anchor="start" x="276.1017" y="-870.4" font-family="Times,serif" font-size="14.00" fill="#000000">20</text>
</g>
<!-- expr6&#45;&gt;expr5 -->
<g id="edge6" class="edge">
<title>expr6-&gt;expr5</title>
<path fill="none" stroke="#000000" d="M283.1017,-935.8314C283.1017,-928.131 283.1017,-918.9743 283.1017,-910.4166"/>
<polygon fill="#000000" stroke="#000000" points="286.6018,-910.4132 283.1017,-900.4133 279.6018,-910.4133 286.6018,-910.4132"/>
</g>
<!-- statement11 -->
<g id="node15" class="node">
<title>statement11</title>
<polygon fill="none" stroke="#000000" points="386.1017,-900 332.1017,-900 332.1017,-864 386.1017,-864 386.1017,-900"/>
<text text-anchor="middle" x="359.1017" y="-877.8" font-family="Times,serif" font-size="14.00" fill="#000000">stmt</text>
</g>
<!-- stmt_list43&#45;&gt;statement11 -->
<g id="edge14" class="edge">
<title>stmt_list43-&gt;statement11</title>
<path fill="none" stroke="#000000" d="M358.354,-935.8314C358.461,-928.131 358.5882,-918.9743 358.707,-910.4166"/>
<polygon fill="#000000" stroke="#000000" points="362.2066,-910.4609 358.846,-900.4133 355.2073,-910.3637 362.2066,-910.4609"/>
</g>
<!-- expr10 -->
<g id="node16" class="node">
<title>expr10</title>
<polygon fill="none" stroke="#000000" points="430.8741,-828 265.3293,-828 265.3293,-792 430.8741,-792 430.8741,-828"/>
<text text-anchor="start" x="273.4656" y="-806.8" font-family="Times,serif" font-weight="bold" font-size="14.00" fill="#000000">MemberAccessExpression</text>
</g>
<!-- statement11&#45;&gt;expr10 -->
<g id="edge13" class="edge">
<title>statement11-&gt;expr10</title>
<path fill="none" stroke="#000000" d="M356.3259,-863.8314C355.1495,-856.131 353.7506,-846.9743 352.4431,-838.4166"/>
<polygon fill="#000000" stroke="#000000" points="355.885,-837.7699 350.9148,-828.4133 348.9653,-838.8272 355.885,-837.7699"/>
</g>
<!-- expr7 -->
<g id="node17" class="node">
<title>expr7</title>
<polygon fill="none" stroke="#000000" points="277.1846,-756 209.0188,-756 209.0188,-720 277.1846,-720 277.1846,-756"/>
<text text-anchor="start" x="217.0603" y="-740.4" font-family="Times,serif" font-weight="bold" font-size="14.00" fill="#000000">Identifier</text>
<text text-anchor="start" x="221.7195" y="-726.4" font-family="Times,serif" font-size="14.00" fill="#000000">console</text>
</g>
<!-- expr10&#45;&gt;expr7 -->
<g id="edge11" class="edge">
<title>expr10-&gt;expr7</title>
<path fill="none" stroke="#000000" d="M321.6058,-791.8314C308.4243,-782.7927 292.317,-771.7476 278.1306,-762.0198"/>
<polygon fill="#000000" stroke="#000000" points="279.8158,-758.9316 269.5892,-756.1628 275.8571,-764.7047 279.8158,-758.9316"/>
</g>
<!-- member_access9 -->
<g id="node18" class="node">
<title>member_access9</title>
<polygon fill="none" stroke="#000000" points="401.0205,-756 295.1829,-756 295.1829,-720 401.0205,-720 401.0205,-756"/>
<text text-anchor="middle" x="348.1017" y="-733.8" font-family="Times,serif" font-size="14.00" fill="#000000">FunctionAccess</text>
</g>
<!-- expr10&#45;&gt;member_access9 -->
<g id="edge12" class="edge">
<title>expr10-&gt;member_access9</title>
<path fill="none" stroke="#000000" d="M348.1017,-791.8314C348.1017,-784.131 348.1017,-774.9743 348.1017,-766.4166"/>
<polygon fill="#000000" stroke="#000000" points="351.6018,-766.4132 348.1017,-756.4133 344.6018,-766.4133 351.6018,-766.4132"/>
</g>
<!-- function_name44 -->
<g id="node19" class="node">
<title>function_name44</title>
<polygon fill="none" stroke="#000000" points="299.1017,-684 245.1017,-684 245.1017,-648 299.1017,-648 299.1017,-684"/>
<text text-anchor="start" x="255.3885" y="-668.4" font-family="Times,serif" font-weight="bold" font-size="14.00" fill="#000000">Name</text>
<text text-anchor="start" x="263.1564" y="-654.4" font-family="Times,serif" font-size="14.00" fill="#000000">log</text>
</g>
<!-- member_access9&#45;&gt;function_name44 -->
<g id="edge9" class="edge">
<title>member_access9-&gt;function_name44</title>
<path fill="none" stroke="#000000" d="M328.9237,-719.8314C319.7429,-711.1337 308.6011,-700.5783 298.6241,-691.1265"/>
<polygon fill="#000000" stroke="#000000" points="300.9402,-688.4995 291.2736,-684.1628 296.126,-693.5811 300.9402,-688.4995"/>
</g>
<!-- expr_list45 -->
<g id="node20" class="node">
<title>expr_list45</title>
<polygon fill="none" stroke="#000000" points="379.0953,-684 317.1081,-684 317.1081,-648 379.0953,-648 379.0953,-684"/>
<text text-anchor="middle" x="348.1017" y="-661.8" font-family="Times,serif" font-size="14.00" fill="#000000">expr list</text>
</g>
<!-- member_access9&#45;&gt;expr_list45 -->
<g id="edge10" class="edge">
<title>member_access9-&gt;expr_list45</title>
<path fill="none" stroke="#000000" d="M348.1017,-719.8314C348.1017,-712.131 348.1017,-702.9743 348.1017,-694.4166"/>
<polygon fill="#000000" stroke="#000000" points="351.6018,-694.4132 348.1017,-684.4133 344.6018,-694.4133 351.6018,-694.4132"/>
</g>
<!-- expr8 -->
<g id="node21" class="node">
<title>expr8</title>
<polygon fill="none" stroke="#000000" points="375.1017,-612 321.1017,-612 321.1017,-576 375.1017,-576 375.1017,-612"/>
<text text-anchor="start" x="330.9895" y="-596.4" font-family="Times,serif" font-weight="bold" font-size="14.00" fill="#000000">String</text>
<text text-anchor="start" x="333.1385" y="-582.4" font-family="Times,serif" font-size="14.00" fill="#000000">1er if</text>
</g>
<!-- expr_list45&#45;&gt;expr8 -->
<g id="edge8" class="edge">
<title>expr_list45-&gt;expr8</title>
<path fill="none" stroke="#000000" d="M348.1017,-647.8314C348.1017,-640.131 348.1017,-630.9743 348.1017,-622.4166"/>
<polygon fill="#000000" stroke="#000000" points="351.6018,-622.4132 348.1017,-612.4133 344.6018,-622.4133 351.6018,-622.4132"/>
</g>
<!-- statement35 -->
<g id="node23" class="node">
<title>statement35</title>
<polygon fill="none" stroke="#000000" points="529.1017,-900 475.1017,-900 475.1017,-864 529.1017,-864 529.1017,-900"/>
<text text-anchor="middle" x="502.1017" y="-877.8" font-family="Times,serif" font-size="14.00" fill="#000000">stmt</text>
</g>
<!-- Else46&#45;&gt;statement35 -->
<g id="edge53" class="edge">
<title>Else46-&gt;statement35</title>
<path fill="none" stroke="#000000" d="M484.9056,-935.8314C487.3925,-928.0463 490.3548,-918.7729 493.1142,-910.1347"/>
<polygon fill="#000000" stroke="#000000" points="496.5107,-911.0041 496.2197,-900.4133 489.8426,-908.874 496.5107,-911.0041"/>
</g>
<!-- IfStatement47 -->
<g id="node24" class="node">
<title>IfStatement47</title>
<polygon fill="none" stroke="#000000" points="578.1017,-828 524.1017,-828 524.1017,-792 578.1017,-792 578.1017,-828"/>
<text text-anchor="middle" x="551.1017" y="-805.8" font-family="Times,serif" font-size="14.00" fill="#000000">If</text>
</g>
<!-- statement35&#45;&gt;IfStatement47 -->
<g id="edge52" class="edge">
<title>statement35-&gt;IfStatement47</title>
<path fill="none" stroke="#000000" d="M514.4665,-863.8314C520.0526,-855.6232 526.7647,-845.7606 532.9089,-836.7323"/>
<polygon fill="#000000" stroke="#000000" points="535.8377,-838.6496 538.5704,-828.4133 530.0507,-834.7112 535.8377,-838.6496"/>
</g>
<!-- expr14 -->
<g id="node25" class="node">
<title>expr14</title>
<polygon fill="none" stroke="#000000" points="541.1017,-756 487.1017,-756 487.1017,-720 541.1017,-720 541.1017,-756"/>
<text text-anchor="middle" x="514.1017" y="-733.8" font-family="Times,serif" font-size="14.00" fill="#000000">&lt;=</text>
</g>
<!-- IfStatement47&#45;&gt;expr14 -->
<g id="edge19" class="edge">
<title>IfStatement47-&gt;expr14</title>
<path fill="none" stroke="#000000" d="M541.765,-791.8314C537.6774,-783.8771 532.7913,-774.369 528.2708,-765.5723"/>
<polygon fill="#000000" stroke="#000000" points="531.2478,-763.7078 523.5641,-756.4133 525.0218,-766.9074 531.2478,-763.7078"/>
</g>
<!-- stmt_list48 -->
<g id="node28" class="node">
<title>stmt_list48</title>
<polygon fill="none" stroke="#000000" points="619.3351,-756 558.8683,-756 558.8683,-720 619.3351,-720 619.3351,-756"/>
<text text-anchor="middle" x="589.1017" y="-733.8" font-family="Times,serif" font-size="14.00" fill="#000000">stmt list</text>
</g>
<!-- IfStatement47&#45;&gt;stmt_list48 -->
<g id="edge27" class="edge">
<title>IfStatement47-&gt;stmt_list48</title>
<path fill="none" stroke="#000000" d="M560.6907,-791.8314C564.9334,-783.7925 570.0138,-774.1666 574.6977,-765.2918"/>
<polygon fill="#000000" stroke="#000000" points="577.8113,-766.8908 579.3836,-756.4133 571.6206,-763.6235 577.8113,-766.8908"/>
</g>
<!-- Else51 -->
<g id="node36" class="node">
<title>Else51</title>
<polygon fill="none" stroke="#000000" points="737.1017,-756 683.1017,-756 683.1017,-720 737.1017,-720 737.1017,-756"/>
<text text-anchor="middle" x="710.1017" y="-733.8" font-family="Times,serif" font-size="14.00" fill="#000000">else</text>
</g>
<!-- IfStatement47&#45;&gt;Else51 -->
<g id="edge28" class="edge">
<title>IfStatement47-&gt;Else51</title>
<path fill="none" stroke="#000000" d="M578.4348,-797.6228C604.6798,-785.7382 644.5053,-767.704 673.4835,-754.5818"/>
<polygon fill="#000000" stroke="#000000" points="675.194,-757.6495 682.8597,-750.336 672.3064,-751.2728 675.194,-757.6495"/>
</g>
<!-- expr12 -->
<g id="node26" class="node">
<title>expr12</title>
<polygon fill="none" stroke="#000000" points="465.1846,-684 397.0188,-684 397.0188,-648 465.1846,-648 465.1846,-684"/>
<text text-anchor="start" x="405.0603" y="-668.4" font-family="Times,serif" font-weight="bold" font-size="14.00" fill="#000000">Identifier</text>
<text text-anchor="start" x="427.9944" y="-654.4" font-family="Times,serif" font-size="14.00" fill="#000000">a</text>
</g>
<!-- expr14&#45;&gt;expr12 -->
<g id="edge17" class="edge">
<title>expr14-&gt;expr12</title>
<path fill="none" stroke="#000000" d="M493.1573,-719.8314C483.0326,-711.0485 470.724,-700.3712 459.7469,-690.8489"/>
<polygon fill="#000000" stroke="#000000" points="461.8868,-688.0718 452.0394,-684.1628 457.2998,-693.3595 461.8868,-688.0718"/>
</g>
<!-- expr13 -->
<g id="node27" class="node">
<title>expr13</title>
<polygon fill="none" stroke="#000000" points="544.9742,-684 483.2292,-684 483.2292,-648 544.9742,-648 544.9742,-684"/>
<text text-anchor="start" x="491.1655" y="-668.4" font-family="Times,serif" font-weight="bold" font-size="14.00" fill="#000000">Number</text>
<text text-anchor="start" x="507.1017" y="-654.4" font-family="Times,serif" font-size="14.00" fill="#000000">40</text>
</g>
<!-- expr14&#45;&gt;expr13 -->
<g id="edge18" class="edge">
<title>expr14-&gt;expr13</title>
<path fill="none" stroke="#000000" d="M514.1017,-719.8314C514.1017,-712.131 514.1017,-702.9743 514.1017,-694.4166"/>
<polygon fill="#000000" stroke="#000000" points="517.6018,-694.4132 514.1017,-684.4133 510.6018,-694.4133 517.6018,-694.4132"/>
</g>
<!-- statement19 -->
<g id="node29" class="node">
<title>statement19</title>
<polygon fill="none" stroke="#000000" points="617.1017,-684 563.1017,-684 563.1017,-648 617.1017,-648 617.1017,-684"/>
<text text-anchor="middle" x="590.1017" y="-661.8" font-family="Times,serif" font-size="14.00" fill="#000000">stmt</text>
</g>
<!-- stmt_list48&#45;&gt;statement19 -->
<g id="edge26" class="edge">
<title>stmt_list48-&gt;statement19</title>
<path fill="none" stroke="#000000" d="M589.354,-719.8314C589.461,-712.131 589.5882,-702.9743 589.707,-694.4166"/>
<polygon fill="#000000" stroke="#000000" points="593.2066,-694.4609 589.846,-684.4133 586.2073,-694.3637 593.2066,-694.4609"/>
</g>
<!-- expr18 -->
<g id="node30" class="node">
<title>expr18</title>
<polygon fill="none" stroke="#000000" points="623.8741,-612 458.3293,-612 458.3293,-576 623.8741,-576 623.8741,-612"/>
<text text-anchor="start" x="466.4656" y="-590.8" font-family="Times,serif" font-weight="bold" font-size="14.00" fill="#000000">MemberAccessExpression</text>
</g>
<!-- statement19&#45;&gt;expr18 -->
<g id="edge25" class="edge">
<title>statement19-&gt;expr18</title>
<path fill="none" stroke="#000000" d="M577.7369,-647.8314C572.1508,-639.6232 565.4387,-629.7606 559.2945,-620.7323"/>
<polygon fill="#000000" stroke="#000000" points="562.1527,-618.7112 553.633,-612.4133 556.3657,-622.6496 562.1527,-618.7112"/>
</g>
<!-- expr15 -->
<g id="node31" class="node">
<title>expr15</title>
<polygon fill="none" stroke="#000000" points="470.1846,-540 402.0188,-540 402.0188,-504 470.1846,-504 470.1846,-540"/>
<text text-anchor="start" x="410.0603" y="-524.4" font-family="Times,serif" font-weight="bold" font-size="14.00" fill="#000000">Identifier</text>
<text text-anchor="start" x="414.7195" y="-510.4" font-family="Times,serif" font-size="14.00" fill="#000000">console</text>
</g>
<!-- expr18&#45;&gt;expr15 -->
<g id="edge23" class="edge">
<title>expr18-&gt;expr15</title>
<path fill="none" stroke="#000000" d="M514.6058,-575.8314C501.4243,-566.7927 485.317,-555.7476 471.1306,-546.0198"/>
<polygon fill="#000000" stroke="#000000" points="472.8158,-542.9316 462.5892,-540.1628 468.8571,-548.7047 472.8158,-542.9316"/>
</g>
<!-- member_access17 -->
<g id="node32" class="node">
<title>member_access17</title>
<polygon fill="none" stroke="#000000" points="594.0205,-540 488.1829,-540 488.1829,-504 594.0205,-504 594.0205,-540"/>
<text text-anchor="middle" x="541.1017" y="-517.8" font-family="Times,serif" font-size="14.00" fill="#000000">FunctionAccess</text>
</g>
<!-- expr18&#45;&gt;member_access17 -->
<g id="edge24" class="edge">
<title>expr18-&gt;member_access17</title>
<path fill="none" stroke="#000000" d="M541.1017,-575.8314C541.1017,-568.131 541.1017,-558.9743 541.1017,-550.4166"/>
<polygon fill="#000000" stroke="#000000" points="544.6018,-550.4132 541.1017,-540.4133 537.6018,-550.4133 544.6018,-550.4132"/>
</g>
<!-- function_name49 -->
<g id="node33" class="node">
<title>function_name49</title>
<polygon fill="none" stroke="#000000" points="492.1017,-468 438.1017,-468 438.1017,-432 492.1017,-432 492.1017,-468"/>
<text text-anchor="start" x="448.3885" y="-452.4" font-family="Times,serif" font-weight="bold" font-size="14.00" fill="#000000">Name</text>
<text text-anchor="start" x="456.1564" y="-438.4" font-family="Times,serif" font-size="14.00" fill="#000000">log</text>
</g>
<!-- member_access17&#45;&gt;function_name49 -->
<g id="edge21" class="edge">
<title>member_access17-&gt;function_name49</title>
<path fill="none" stroke="#000000" d="M521.9237,-503.8314C512.7429,-495.1337 501.6011,-484.5783 491.6241,-475.1265"/>
<polygon fill="#000000" stroke="#000000" points="493.9402,-472.4995 484.2736,-468.1628 489.126,-477.5811 493.9402,-472.4995"/>
</g>
<!-- expr_list50 -->
<g id="node34" class="node">
<title>expr_list50</title>
<polygon fill="none" stroke="#000000" points="572.0953,-468 510.1081,-468 510.1081,-432 572.0953,-432 572.0953,-468"/>
<text text-anchor="middle" x="541.1017" y="-445.8" font-family="Times,serif" font-size="14.00" fill="#000000">expr list</text>
</g>
<!-- member_access17&#45;&gt;expr_list50 -->
<g id="edge22" class="edge">
<title>member_access17-&gt;expr_list50</title>
<path fill="none" stroke="#000000" d="M541.1017,-503.8314C541.1017,-496.131 541.1017,-486.9743 541.1017,-478.4166"/>
<polygon fill="#000000" stroke="#000000" points="544.6018,-478.4132 541.1017,-468.4133 537.6018,-478.4133 544.6018,-478.4132"/>
</g>
<!-- expr16 -->
<g id="node35" class="node">
<title>expr16</title>
<polygon fill="none" stroke="#000000" points="568.1017,-396 514.1017,-396 514.1017,-360 568.1017,-360 568.1017,-396"/>
<text text-anchor="start" x="523.9895" y="-380.4" font-family="Times,serif" font-weight="bold" font-size="14.00" fill="#000000">String</text>
<text text-anchor="start" x="524.5761" y="-366.4" font-family="Times,serif" font-size="14.00" fill="#000000">2do if</text>
</g>
<!-- expr_list50&#45;&gt;expr16 -->
<g id="edge20" class="edge">
<title>expr_list50-&gt;expr16</title>
<path fill="none" stroke="#000000" d="M541.1017,-431.8314C541.1017,-424.131 541.1017,-414.9743 541.1017,-406.4166"/>
<polygon fill="#000000" stroke="#000000" points="544.6018,-406.4132 541.1017,-396.4133 537.6018,-406.4133 544.6018,-406.4132"/>
</g>
<!-- statement34 -->
<g id="node37" class="node">
<title>statement34</title>
<polygon fill="none" stroke="#000000" points="760.1017,-684 706.1017,-684 706.1017,-648 760.1017,-648 760.1017,-684"/>
<text text-anchor="middle" x="733.1017" y="-661.8" font-family="Times,serif" font-size="14.00" fill="#000000">stmt</text>
</g>
<!-- Else51&#45;&gt;statement34 -->
<g id="edge51" class="edge">
<title>Else51-&gt;statement34</title>
<path fill="none" stroke="#000000" d="M715.9056,-719.8314C718.3925,-712.0463 721.3548,-702.7729 724.1142,-694.1347"/>
<polygon fill="#000000" stroke="#000000" points="727.5107,-695.0041 727.2197,-684.4133 720.8426,-692.874 727.5107,-695.0041"/>
</g>
<!-- IfStatement52 -->
<g id="node38" class="node">
<title>IfStatement52</title>
<polygon fill="none" stroke="#000000" points="771.1017,-612 717.1017,-612 717.1017,-576 771.1017,-576 771.1017,-612"/>
<text text-anchor="middle" x="744.1017" y="-589.8" font-family="Times,serif" font-size="14.00" fill="#000000">If</text>
</g>
<!-- statement34&#45;&gt;IfStatement52 -->
<g id="edge50" class="edge">
<title>statement34-&gt;IfStatement52</title>
<path fill="none" stroke="#000000" d="M735.8775,-647.8314C737.0539,-640.131 738.4528,-630.9743 739.7603,-622.4166"/>
<polygon fill="#000000" stroke="#000000" points="743.2381,-622.8272 741.2886,-612.4133 736.3184,-621.7699 743.2381,-622.8272"/>
</g>
<!-- expr22 -->
<g id="node39" class="node">
<title>expr22</title>
<polygon fill="none" stroke="#000000" points="734.1017,-540 680.1017,-540 680.1017,-504 734.1017,-504 734.1017,-540"/>
<text text-anchor="middle" x="707.1017" y="-517.8" font-family="Times,serif" font-size="14.00" fill="#000000">&lt;=</text>
</g>
<!-- IfStatement52&#45;&gt;expr22 -->
<g id="edge31" class="edge">
<title>IfStatement52-&gt;expr22</title>
<path fill="none" stroke="#000000" d="M734.765,-575.8314C730.6774,-567.8771 725.7913,-558.369 721.2708,-549.5723"/>
<polygon fill="#000000" stroke="#000000" points="724.2478,-547.7078 716.5641,-540.4133 718.0218,-550.9074 724.2478,-547.7078"/>
</g>
<!-- stmt_list53 -->
<g id="node42" class="node">
<title>stmt_list53</title>
<polygon fill="none" stroke="#000000" points="812.3351,-540 751.8683,-540 751.8683,-504 812.3351,-504 812.3351,-540"/>
<text text-anchor="middle" x="782.1017" y="-517.8" font-family="Times,serif" font-size="14.00" fill="#000000">stmt list</text>
</g>
<!-- IfStatement52&#45;&gt;stmt_list53 -->
<g id="edge39" class="edge">
<title>IfStatement52-&gt;stmt_list53</title>
<path fill="none" stroke="#000000" d="M753.6907,-575.8314C757.9334,-567.7925 763.0138,-558.1666 767.6977,-549.2918"/>
<polygon fill="#000000" stroke="#000000" points="770.8113,-550.8908 772.3836,-540.4133 764.6206,-547.6235 770.8113,-550.8908"/>
</g>
<!-- Else56 -->
<g id="node50" class="node">
<title>Else56</title>
<polygon fill="none" stroke="#000000" points="898.1017,-540 844.1017,-540 844.1017,-504 898.1017,-504 898.1017,-540"/>
<text text-anchor="middle" x="871.1017" y="-517.8" font-family="Times,serif" font-size="14.00" fill="#000000">else</text>
</g>
<!-- IfStatement52&#45;&gt;Else56 -->
<g id="edge40" class="edge">
<title>IfStatement52-&gt;Else56</title>
<path fill="none" stroke="#000000" d="M771.3464,-578.5542C789.9285,-568.0195 814.7397,-553.9532 834.9689,-542.4848"/>
<polygon fill="#000000" stroke="#000000" points="836.929,-545.3969 843.9021,-537.4203 833.4767,-539.3074 836.929,-545.3969"/>
</g>
<!-- expr20 -->
<g id="node40" class="node">
<title>expr20</title>
<polygon fill="none" stroke="#000000" points="658.1846,-468 590.0188,-468 590.0188,-432 658.1846,-432 658.1846,-468"/>
<text text-anchor="start" x="598.0603" y="-452.4" font-family="Times,serif" font-weight="bold" font-size="14.00" fill="#000000">Identifier</text>
<text text-anchor="start" x="620.9944" y="-438.4" font-family="Times,serif" font-size="14.00" fill="#000000">a</text>
</g>
<!-- expr22&#45;&gt;expr20 -->
<g id="edge29" class="edge">
<title>expr22-&gt;expr20</title>
<path fill="none" stroke="#000000" d="M686.1573,-503.8314C676.0326,-495.0485 663.724,-484.3712 652.7469,-474.8489"/>
<polygon fill="#000000" stroke="#000000" points="654.8868,-472.0718 645.0394,-468.1628 650.2998,-477.3595 654.8868,-472.0718"/>
</g>
<!-- expr21 -->
<g id="node41" class="node">
<title>expr21</title>
<polygon fill="none" stroke="#000000" points="737.9742,-468 676.2292,-468 676.2292,-432 737.9742,-432 737.9742,-468"/>
<text text-anchor="start" x="684.1655" y="-452.4" font-family="Times,serif" font-weight="bold" font-size="14.00" fill="#000000">Number</text>
<text text-anchor="start" x="700.1017" y="-438.4" font-family="Times,serif" font-size="14.00" fill="#000000">60</text>
</g>
<!-- expr22&#45;&gt;expr21 -->
<g id="edge30" class="edge">
<title>expr22-&gt;expr21</title>
<path fill="none" stroke="#000000" d="M707.1017,-503.8314C707.1017,-496.131 707.1017,-486.9743 707.1017,-478.4166"/>
<polygon fill="#000000" stroke="#000000" points="710.6018,-478.4132 707.1017,-468.4133 703.6018,-478.4133 710.6018,-478.4132"/>
</g>
<!-- statement27 -->
<g id="node43" class="node">
<title>statement27</title>
<polygon fill="none" stroke="#000000" points="810.1017,-468 756.1017,-468 756.1017,-432 810.1017,-432 810.1017,-468"/>
<text text-anchor="middle" x="783.1017" y="-445.8" font-family="Times,serif" font-size="14.00" fill="#000000">stmt</text>
</g>
<!-- stmt_list53&#45;&gt;statement27 -->
<g id="edge38" class="edge">
<title>stmt_list53-&gt;statement27</title>
<path fill="none" stroke="#000000" d="M782.354,-503.8314C782.461,-496.131 782.5882,-486.9743 782.707,-478.4166"/>
<polygon fill="#000000" stroke="#000000" points="786.2066,-478.4609 782.846,-468.4133 779.2073,-478.3637 786.2066,-478.4609"/>
</g>
<!-- expr26 -->
<g id="node44" class="node">
<title>expr26</title>
<polygon fill="none" stroke="#000000" points="858.8741,-396 693.3293,-396 693.3293,-360 858.8741,-360 858.8741,-396"/>
<text text-anchor="start" x="701.4656" y="-374.8" font-family="Times,serif" font-weight="bold" font-size="14.00" fill="#000000">MemberAccessExpression</text>
</g>
<!-- statement27&#45;&gt;expr26 -->
<g id="edge37" class="edge">
<title>statement27-&gt;expr26</title>
<path fill="none" stroke="#000000" d="M781.3353,-431.8314C780.5867,-424.131 779.6964,-414.9743 778.8644,-406.4166"/>
<polygon fill="#000000" stroke="#000000" points="782.3432,-406.0276 777.8919,-396.4133 775.3761,-406.7051 782.3432,-406.0276"/>
</g>
<!-- expr23 -->
<g id="node45" class="node">
<title>expr23</title>
<polygon fill="none" stroke="#000000" points="705.1846,-324 637.0188,-324 637.0188,-288 705.1846,-288 705.1846,-324"/>
<text text-anchor="start" x="645.0603" y="-308.4" font-family="Times,serif" font-weight="bold" font-size="14.00" fill="#000000">Identifier</text>
<text text-anchor="start" x="649.7195" y="-294.4" font-family="Times,serif" font-size="14.00" fill="#000000">console</text>
</g>
<!-- expr26&#45;&gt;expr23 -->
<g id="edge35" class="edge">
<title>expr26-&gt;expr23</title>
<path fill="none" stroke="#000000" d="M749.6058,-359.8314C736.4243,-350.7927 720.317,-339.7476 706.1306,-330.0198"/>
<polygon fill="#000000" stroke="#000000" points="707.8158,-326.9316 697.5892,-324.1628 703.8571,-332.7047 707.8158,-326.9316"/>
</g>
<!-- member_access25 -->
<g id="node46" class="node">
<title>member_access25</title>
<polygon fill="none" stroke="#000000" points="829.0205,-324 723.1829,-324 723.1829,-288 829.0205,-288 829.0205,-324"/>
<text text-anchor="middle" x="776.1017" y="-301.8" font-family="Times,serif" font-size="14.00" fill="#000000">FunctionAccess</text>
</g>
<!-- expr26&#45;&gt;member_access25 -->
<g id="edge36" class="edge">
<title>expr26-&gt;member_access25</title>
<path fill="none" stroke="#000000" d="M776.1017,-359.8314C776.1017,-352.131 776.1017,-342.9743 776.1017,-334.4166"/>
<polygon fill="#000000" stroke="#000000" points="779.6018,-334.4132 776.1017,-324.4133 772.6018,-334.4133 779.6018,-334.4132"/>
</g>
<!-- function_name54 -->
<g id="node47" class="node">
<title>function_name54</title>
<polygon fill="none" stroke="#000000" points="727.1017,-252 673.1017,-252 673.1017,-216 727.1017,-216 727.1017,-252"/>
<text text-anchor="start" x="683.3885" y="-236.4" font-family="Times,serif" font-weight="bold" font-size="14.00" fill="#000000">Name</text>
<text text-anchor="start" x="691.1564" y="-222.4" font-family="Times,serif" font-size="14.00" fill="#000000">log</text>
</g>
<!-- member_access25&#45;&gt;function_name54 -->
<g id="edge33" class="edge">
<title>member_access25-&gt;function_name54</title>
<path fill="none" stroke="#000000" d="M756.9237,-287.8314C747.7429,-279.1337 736.6011,-268.5783 726.6241,-259.1265"/>
<polygon fill="#000000" stroke="#000000" points="728.9402,-256.4995 719.2736,-252.1628 724.126,-261.5811 728.9402,-256.4995"/>
</g>
<!-- expr_list55 -->
<g id="node48" class="node">
<title>expr_list55</title>
<polygon fill="none" stroke="#000000" points="807.0953,-252 745.1081,-252 745.1081,-216 807.0953,-216 807.0953,-252"/>
<text text-anchor="middle" x="776.1017" y="-229.8" font-family="Times,serif" font-size="14.00" fill="#000000">expr list</text>
</g>
<!-- member_access25&#45;&gt;expr_list55 -->
<g id="edge34" class="edge">
<title>member_access25-&gt;expr_list55</title>
<path fill="none" stroke="#000000" d="M776.1017,-287.8314C776.1017,-280.131 776.1017,-270.9743 776.1017,-262.4166"/>
<polygon fill="#000000" stroke="#000000" points="779.6018,-262.4132 776.1017,-252.4133 772.6018,-262.4133 779.6018,-262.4132"/>
</g>
<!-- expr24 -->
<g id="node49" class="node">
<title>expr24</title>
<polygon fill="none" stroke="#000000" points="803.1017,-180 749.1017,-180 749.1017,-144 803.1017,-144 803.1017,-180"/>
<text text-anchor="start" x="758.9895" y="-164.4" font-family="Times,serif" font-weight="bold" font-size="14.00" fill="#000000">String</text>
<text text-anchor="start" x="761.1385" y="-150.4" font-family="Times,serif" font-size="14.00" fill="#000000">3er if</text>
</g>
<!-- expr_list55&#45;&gt;expr24 -->
<g id="edge32" class="edge">
<title>expr_list55-&gt;expr24</title>
<path fill="none" stroke="#000000" d="M776.1017,-215.8314C776.1017,-208.131 776.1017,-198.9743 776.1017,-190.4166"/>
<polygon fill="#000000" stroke="#000000" points="779.6018,-190.4132 776.1017,-180.4133 772.6018,-190.4133 779.6018,-190.4132"/>
</g>
<!-- statement33 -->
<g id="node51" class="node">
<title>statement33</title>
<polygon fill="none" stroke="#000000" points="925.1017,-468 871.1017,-468 871.1017,-432 925.1017,-432 925.1017,-468"/>
<text text-anchor="middle" x="898.1017" y="-445.8" font-family="Times,serif" font-size="14.00" fill="#000000">stmt</text>
</g>
<!-- Else56&#45;&gt;statement33 -->
<g id="edge49" class="edge">
<title>Else56-&gt;statement33</title>
<path fill="none" stroke="#000000" d="M877.9149,-503.8314C880.8661,-495.9617 884.3875,-486.5712 887.6567,-477.8533"/>
<polygon fill="#000000" stroke="#000000" points="890.9626,-479.0055 891.1967,-468.4133 884.4083,-476.5476 890.9626,-479.0055"/>
</g>
<!-- block57 -->
<g id="node52" class="node">
<title>block57</title>
<polygon fill="none" stroke="#000000" points="932.1017,-396 878.1017,-396 878.1017,-360 932.1017,-360 932.1017,-396"/>
<text text-anchor="middle" x="905.1017" y="-373.8" font-family="Times,serif" font-size="14.00" fill="#000000">Block</text>
</g>
<!-- statement33&#45;&gt;block57 -->
<g id="edge48" class="edge">
<title>statement33-&gt;block57</title>
<path fill="none" stroke="#000000" d="M899.8681,-431.8314C900.6167,-424.131 901.507,-414.9743 902.339,-406.4166"/>
<polygon fill="#000000" stroke="#000000" points="905.8273,-406.7051 903.3115,-396.4133 898.8602,-406.0276 905.8273,-406.7051"/>
</g>
<!-- statement32 -->
<g id="node53" class="node">
<title>statement32</title>
<polygon fill="none" stroke="#000000" points="933.1017,-324 879.1017,-324 879.1017,-288 933.1017,-288 933.1017,-324"/>
<text text-anchor="middle" x="906.1017" y="-301.8" font-family="Times,serif" font-size="14.00" fill="#000000">stmt</text>
</g>
<!-- block57&#45;&gt;statement32 -->
<g id="edge47" class="edge">
<title>block57-&gt;statement32</title>
<path fill="none" stroke="#000000" d="M905.354,-359.8314C905.461,-352.131 905.5882,-342.9743 905.707,-334.4166"/>
<polygon fill="#000000" stroke="#000000" points="909.2066,-334.4609 905.846,-324.4133 902.2073,-334.3637 909.2066,-334.4609"/>
</g>
<!-- expr31 -->
<g id="node54" class="node">
<title>expr31</title>
<polygon fill="none" stroke="#000000" points="989.8741,-252 824.3293,-252 824.3293,-216 989.8741,-216 989.8741,-252"/>
<text text-anchor="start" x="832.4656" y="-230.8" font-family="Times,serif" font-weight="bold" font-size="14.00" fill="#000000">MemberAccessExpression</text>
</g>
<!-- statement32&#45;&gt;expr31 -->
<g id="edge46" class="edge">
<title>statement32-&gt;expr31</title>
<path fill="none" stroke="#000000" d="M906.354,-287.8314C906.461,-280.131 906.5882,-270.9743 906.707,-262.4166"/>
<polygon fill="#000000" stroke="#000000" points="910.2066,-262.4609 906.846,-252.4133 903.2073,-262.3637 910.2066,-262.4609"/>
</g>
<!-- expr28 -->
<g id="node55" class="node">
<title>expr28</title>
<polygon fill="none" stroke="#000000" points="915.1846,-180 847.0188,-180 847.0188,-144 915.1846,-144 915.1846,-180"/>
<text text-anchor="start" x="855.0603" y="-164.4" font-family="Times,serif" font-weight="bold" font-size="14.00" fill="#000000">Identifier</text>
<text text-anchor="start" x="859.7195" y="-150.4" font-family="Times,serif" font-size="14.00" fill="#000000">console</text>
</g>
<!-- expr31&#45;&gt;expr28 -->
<g id="edge44" class="edge">
<title>expr31-&gt;expr28</title>
<path fill="none" stroke="#000000" d="M900.5408,-215.8314C897.699,-207.9617 894.308,-198.5712 891.1598,-189.8533"/>
<polygon fill="#000000" stroke="#000000" points="894.4394,-188.63 887.7509,-180.4133 887.8555,-191.0076 894.4394,-188.63"/>
</g>
<!-- member_access30 -->
<g id="node56" class="node">
<title>member_access30</title>
<polygon fill="none" stroke="#000000" points="1039.0205,-180 933.1829,-180 933.1829,-144 1039.0205,-144 1039.0205,-180"/>
<text text-anchor="middle" x="986.1017" y="-157.8" font-family="Times,serif" font-size="14.00" fill="#000000">FunctionAccess</text>
</g>
<!-- expr31&#45;&gt;member_access30 -->
<g id="edge45" class="edge">
<title>expr31-&gt;member_access30</title>
<path fill="none" stroke="#000000" d="M927.0367,-215.8314C936.58,-207.1337 948.1616,-196.5783 958.5323,-187.1265"/>
<polygon fill="#000000" stroke="#000000" points="961.1397,-189.4857 966.173,-180.1628 956.4245,-184.3121 961.1397,-189.4857"/>
</g>
<!-- function_name58 -->
<g id="node57" class="node">
<title>function_name58</title>
<polygon fill="none" stroke="#000000" points="975.1017,-108 921.1017,-108 921.1017,-72 975.1017,-72 975.1017,-108"/>
<text text-anchor="start" x="931.3885" y="-92.4" font-family="Times,serif" font-weight="bold" font-size="14.00" fill="#000000">Name</text>
<text text-anchor="start" x="939.1564" y="-78.4" font-family="Times,serif" font-size="14.00" fill="#000000">log</text>
</g>
<!-- member_access30&#45;&gt;function_name58 -->
<g id="edge42" class="edge">
<title>member_access30-&gt;function_name58</title>
<path fill="none" stroke="#000000" d="M976.5127,-143.8314C972.27,-135.7925 967.1896,-126.1666 962.5057,-117.2918"/>
<polygon fill="#000000" stroke="#000000" points="965.5828,-115.6235 957.8198,-108.4133 959.3921,-118.8908 965.5828,-115.6235"/>
</g>
<!-- expr_list59 -->
<g id="node58" class="node">
<title>expr_list59</title>
<polygon fill="none" stroke="#000000" points="1055.0953,-108 993.1081,-108 993.1081,-72 1055.0953,-72 1055.0953,-108"/>
<text text-anchor="middle" x="1024.1017" y="-85.8" font-family="Times,serif" font-size="14.00" fill="#000000">expr list</text>
</g>
<!-- member_access30&#45;&gt;expr_list59 -->
<g id="edge43" class="edge">
<title>member_access30-&gt;expr_list59</title>
<path fill="none" stroke="#000000" d="M995.6907,-143.8314C999.9334,-135.7925 1005.0138,-126.1666 1009.6977,-117.2918"/>
<polygon fill="#000000" stroke="#000000" points="1012.8113,-118.8908 1014.3836,-108.4133 1006.6206,-115.6235 1012.8113,-118.8908"/>
</g>
<!-- expr29 -->
<g id="node59" class="node">
<title>expr29</title>
<polygon fill="none" stroke="#000000" points="1051.1017,-36 997.1017,-36 997.1017,0 1051.1017,0 1051.1017,-36"/>
<text text-anchor="start" x="1006.9895" y="-20.4" font-family="Times,serif" font-weight="bold" font-size="14.00" fill="#000000">String</text>
<text text-anchor="start" x="1013.2195" y="-6.4" font-family="Times,serif" font-size="14.00" fill="#000000">else</text>
</g>
<!-- expr_list59&#45;&gt;expr29 -->
<g id="edge41" class="edge">
<title>expr_list59-&gt;expr29</title>
<path fill="none" stroke="#000000" d="M1024.1017,-71.8314C1024.1017,-64.131 1024.1017,-54.9743 1024.1017,-46.4166"/>
<polygon fill="#000000" stroke="#000000" points="1027.6018,-46.4132 1024.1017,-36.4133 1020.6018,-46.4133 1027.6018,-46.4132"/>
</g>
</g>
</svg>